<svg width="22" height="22" viewBox="0 0 22 22" fill="none" xmlns="http://www.w3.org/2000/svg">
<path d="M6.5068 2.03107C5.44224 2.07966 4.86408 2.25755 4.47933 2.40703C3.96965 2.60512 3.60588 2.84177 3.2238 3.22384C2.84173 3.60591 2.60508 3.9697 2.40704 4.47933C2.25751 4.86413 2.07963 5.44229 2.03104 6.5069C1.9785 7.65827 1.9674 8.00359 1.9674 10.9191C1.9674 13.8347 1.9785 14.18 2.03104 15.3314C2.07963 16.396 2.25751 16.9741 2.40704 17.3589C2.60508 17.8686 2.84173 18.2323 3.2238 18.6144C3.60588 18.9965 3.96966 19.2331 4.47933 19.4312C4.8641 19.5807 5.44225 19.7586 6.50685 19.8072C7.65805 19.8597 8.00337 19.8708 10.9191 19.8708C13.8348 19.8708 14.1801 19.8597 15.3313 19.8072C16.3959 19.7586 16.9741 19.5807 17.3589 19.4312C17.8685 19.2331 18.2323 18.9965 18.6144 18.6144C18.9964 18.2323 19.2331 17.8686 19.4311 17.3589C19.5807 16.9741 19.7585 16.396 19.8071 15.3314C19.8597 14.18 19.8708 13.8347 19.8708 10.9191C19.8708 8.00358 19.8597 7.65827 19.8071 6.50685C19.7585 5.44229 19.5807 4.86413 19.4311 4.47933C19.2331 3.9697 18.9964 3.60591 18.6144 3.22384C18.2323 2.84177 17.8685 2.60512 17.3589 2.40703C16.9741 2.25754 16.3959 2.07965 15.3313 2.03107C14.1799 1.97854 13.8346 1.96744 10.9191 1.96744C8.00353 1.96744 7.65822 1.97854 6.5068 2.03107ZM15.421 0.0657087C16.5832 0.118763 17.377 0.303321 18.0715 0.573265C18.7896 0.852309 19.3985 1.22567 20.0055 1.8327C20.6125 2.43973 20.9859 3.04865 21.2649 3.76668C21.5349 4.46125 21.7194 5.25496 21.7725 6.41722C21.8256 7.58181 21.8382 7.95366 21.8382 10.9191C21.8382 13.8846 21.8256 14.2564 21.7725 15.421C21.7194 16.5833 21.5349 17.377 21.2649 18.0716C20.9859 18.7896 20.6125 19.3985 20.0055 20.0056C19.3985 20.6126 18.7896 20.9859 18.0715 21.265C17.377 21.5349 16.5832 21.7195 15.421 21.7725C14.2564 21.8257 13.8845 21.8382 10.9191 21.8382C7.95361 21.8382 7.58181 21.8257 6.41717 21.7725C5.25492 21.7195 4.46121 21.5349 3.76663 21.265C3.0486 20.9859 2.43967 20.6126 1.83265 20.0056C1.22562 19.3985 0.85226 18.7896 0.573216 18.0716C0.303272 17.377 0.118715 16.5833 0.0656602 15.421C0.0125206 14.2564 0 13.8846 0 10.9191C0 7.95366 0.0125206 7.58181 0.0656602 6.41722C0.118715 5.25496 0.303272 4.46125 0.573216 3.76668C0.85226 3.04865 1.22562 2.43972 1.83265 1.8327C2.43968 1.22567 3.0486 0.852309 3.76663 0.573265C4.46121 0.303321 5.25492 0.118763 6.41717 0.0657087C7.58181 0.0125691 7.95361 0 10.9191 0C13.8845 0 14.2564 0.0125691 15.421 0.0657087ZM16.5262 10.9191C16.5262 14.0158 14.0158 16.5263 10.9191 16.5263C7.82236 16.5263 5.31195 14.0158 5.31195 10.9191C5.31195 7.82241 7.82236 5.312 10.9191 5.312C14.0158 5.312 16.5262 7.82241 16.5262 10.9191ZM14.5588 10.9191C14.5588 8.90899 12.9292 7.2794 10.9191 7.2794C8.90894 7.2794 7.27935 8.90898 7.27935 10.9191C7.27935 12.9293 8.90893 14.5589 10.9191 14.5589C12.9292 14.5589 14.5588 12.9293 14.5588 10.9191ZM18.058 5.09047C18.058 5.81413 17.4714 6.40079 16.7477 6.40079C16.0241 6.40079 15.4374 5.81413 15.4374 5.09047C15.4374 4.36682 16.0241 3.78021 16.7477 3.78021C17.4714 3.78021 18.058 4.36682 18.058 5.09047Z" fill="#5E7079"/>
</svg>
