<svg width="19" height="19" viewBox="0 0 19 19" fill="none" xmlns="http://www.w3.org/2000/svg">
<path d="M9.88866 8.34713V8.31848C9.88271 8.32816 9.87638 8.33783 9.87006 8.34713H9.88866Z" fill="#5E7079"/>
<path d="M17.0303 0H1.35845C0.608343 0 0 0.593832 0 1.3257V17.1809C0 17.9124 0.608343 18.5063 1.35845 18.5063H17.0303C17.7815 18.5063 18.3898 17.9121 18.3898 17.1809V1.3257C18.3898 0.59346 17.7811 0 17.0303 0ZM5.57406 15.4921H2.79652V7.13566H5.57406V15.4921ZM4.18547 5.99413H4.16687C3.23519 5.99413 2.63243 5.3523 2.63243 4.55048C2.63243 3.7308 3.2538 3.10683 4.2037 3.10683C5.15398 3.10683 5.73851 3.7308 5.75712 4.55048C5.75712 5.3523 5.15361 5.99413 4.18547 5.99413ZM15.5899 15.4921H12.8124V11.0205C12.8124 9.89757 12.4106 9.1311 11.4056 9.1311C10.6384 9.1311 10.1815 9.64791 9.98017 10.1472C9.90687 10.3255 9.88901 10.5747 9.88901 10.8248V15.4917H7.11147C7.11147 15.4917 7.14794 7.9185 7.11147 7.13528H9.88901V8.31811C10.2581 7.74884 10.9182 6.93808 12.3927 6.93808C14.22 6.93808 15.5903 8.13282 15.5903 10.6998V15.4921H15.5899Z" fill="#5E7079"/>
</svg>
