<svg width="22" height="22" viewBox="0 0 22 22" fill="none" xmlns="http://www.w3.org/2000/svg">
<g clip-path="url(#clip0_1_787)">
<path d="M10.9191 0C4.88933 0 0 4.88933 0 10.9191C0 16.9489 4.88933 21.8382 10.9191 21.8382C16.9489 21.8382 21.8382 16.9489 21.8382 10.9191C21.8382 4.88933 16.9489 0 10.9191 0ZM8.45624 16.1239L4.64668 14.2555C4.61029 14.2191 4.52536 14.1342 4.52536 14.0492V5.39889L8.41984 7.34006V16.1117H8.45624V16.1239ZM8.94153 11.9867V8.05587L12.4356 13.7338L8.94153 11.9867ZM10.4823 9.6816L13.1878 5.35036L17.1187 7.32793L13.0665 13.8794L10.4823 9.6816ZM17.2279 16.1239L13.4184 14.2555L17.2279 8.068V16.1239Z" fill="#5E7079"/>
</g>
<defs>
<clipPath id="clip0_1_787">
<rect width="21.8382" height="21.8382" fill="white"/>
</clipPath>
</defs>
</svg>
