<svg width="22" height="22" viewBox="0 0 22 22" fill="none" xmlns="http://www.w3.org/2000/svg">
<path fill-rule="evenodd" clip-rule="evenodd" d="M11.0001 0C4.92479 0 0 4.92474 0 11C0 17.0753 4.92479 22 11.0001 22C17.0754 22 22 17.075 22 11C22 4.92496 17.0752 0 11.0001 0ZM13.5561 8.02813L13.5559 8.38221H13.5554V13.1409C13.5554 14.2754 13.1085 15.3544 12.3064 16.1566C11.5042 16.9588 10.4251 17.4054 9.29086 17.4054C8.15666 17.4054 7.0775 16.9588 6.27544 16.1566C5.47323 15.3545 5.02634 14.2754 5.02634 13.1409C5.02634 12.0063 5.47323 10.9276 6.27544 10.1255C7.07757 9.32328 8.15644 8.8764 9.29086 8.8764H10.0822V11.1182H9.29086C8.75226 11.1182 8.24137 11.3299 7.86046 11.7108C7.47962 12.0916 7.26821 12.6024 7.26821 13.1409C7.26821 13.6794 7.47962 14.1904 7.86046 14.5713C8.24137 14.9519 8.75234 15.1637 9.29086 15.1637C9.82938 15.1637 10.3404 14.9519 10.7213 14.5713C11.1019 14.1904 11.3135 13.6797 11.3135 13.1455V4.59465H13.546L13.6579 4.80161C14.0055 5.44583 14.4743 6.0566 15.0558 6.5072C15.5054 6.85574 16.0141 7.10163 16.5763 7.20019L16.9737 7.26989L16.5472 9.43117L16.1653 9.36294C15.7105 9.28166 15.2639 9.14365 14.8458 8.9466C14.3659 8.72017 13.9208 8.41472 13.5561 8.02813Z" fill="#5E7079"/>
</svg>
