<svg width="22" height="19" viewBox="0 0 22 19" fill="none" xmlns="http://www.w3.org/2000/svg">
<g clip-path="url(#clip0_1_781)">
<path d="M19.2656 3.17257C20.1911 2.58855 20.9012 1.6625 21.2345 0.559344C20.368 1.10146 19.4105 1.49351 18.3889 1.70576C17.5736 0.786464 16.4085 0.213257 15.119 0.213257C12.6451 0.213257 10.6403 2.32899 10.6403 4.93816C10.6403 5.30858 10.6775 5.66954 10.7544 6.01428C7.03201 5.8169 3.73135 3.93775 1.52023 1.07712C1.1344 1.77741 0.913931 2.58855 0.913931 3.45377C0.913931 5.09228 1.70481 6.53882 2.90715 7.38781C2.17267 7.36348 1.48177 7.14852 0.876758 6.79703V6.85516C0.876758 9.14529 2.42006 11.0555 4.47224 11.4881C4.09538 11.599 3.70059 11.6544 3.29041 11.6544C3.002 11.6544 2.72 11.626 2.44826 11.5706C3.01738 13.447 4.6722 14.8152 6.63337 14.8517C5.09904 16.1198 3.16735 16.8741 1.06903 16.8741C0.707559 16.8741 0.349934 16.8538 0 16.8092C1.98296 18.149 4.33765 18.9317 6.86794 18.9317C15.11 18.9317 19.6143 11.7315 19.6143 5.48703C19.6143 5.28155 19.6117 5.07741 19.6027 4.87597C20.4782 4.20949 21.2396 3.37671 21.8382 2.42903C21.0345 2.80486 20.1706 3.05901 19.2656 3.17257Z" fill="#5E7079"/>
</g>
<defs>
<clipPath id="clip0_1_781">
<rect width="21.8382" height="18.7185" fill="white" transform="translate(0 0.213257)"/>
</clipPath>
</defs>
</svg>
