<svg width="22" height="17" viewBox="0 0 22 17" fill="none" xmlns="http://www.w3.org/2000/svg">
<g clip-path="url(#clip0_1_777)">
<path d="M21.8382 8.43902C21.8382 8.43902 21.8382 12.0647 21.3818 13.8027C21.1307 14.7614 20.3908 15.5164 19.4511 15.7728C17.7481 16.2384 10.9191 16.2384 10.9191 16.2384C10.9191 16.2384 4.09008 16.2384 2.38706 15.7728C1.44752 15.5164 0.707509 14.7614 0.45637 13.8027C0 12.0647 0 8.43902 0 8.43902C0 8.43902 0 4.8132 0.45637 3.07545C0.707509 2.11663 1.44752 1.3616 2.38706 1.10535C4.09007 0.639648 10.9191 0.639648 10.9191 0.639648C10.9191 0.639648 17.7481 0.639648 19.4511 1.10535C20.3908 1.3616 21.1307 2.11663 21.3818 3.07545C21.8382 4.8132 21.8382 8.43902 21.8382 8.43902ZM9.35924 11.5588L14.0388 8.43914L9.35924 5.31927V11.5588Z" fill="#5E7079"/>
</g>
<defs>
<clipPath id="clip0_1_777">
<rect width="21.8382" height="15.5987" fill="white" transform="translate(0 0.639648)"/>
</clipPath>
</defs>
</svg>
